<?xml version="1.0" standalone="no"?>
<!DOCTYPE svg PUBLIC "-//W3C//DTD SVG 20010904//EN"
 "http://www.w3.org/TR/2001/REC-SVG-20010904/DTD/svg10.dtd">
<svg version="1.0" xmlns="http://www.w3.org/2000/svg"
 width="200.000000pt" height="200.000000pt" viewBox="0 0 200.000000 200.000000"
 preserveAspectRatio="xMidYMid meet">

<g transform="translate(0.000000,200.000000) scale(0.100000,-0.100000)"
fill="#183efa" stroke="none">
<path d="M848 1890 c-82 -15 -161 -41 -240 -80 -85 -41 -206 -124 -215 -146
-7 -19 128 -220 209 -310 103 -116 274 -262 374 -319 l31 -18 62 42 c138 94
269 213 371 337 72 87 181 254 174 266 -15 24 -148 114 -219 148 -128 62 -210
81 -365 85 -74 2 -156 0 -182 -5z"/>
<path d="M192 1398 c-86 -177 -113 -390 -74 -582 12 -54 23 -100 26 -103 13
-13 344 71 476 122 l70 27 -97 106 c-146 162 -266 334 -327 470 -10 23 -22 42
-26 42 -5 0 -26 -37 -48 -82z"/>
<path d="M1737 1428 c-62 -137 -202 -332 -339 -474 l-88 -91 87 -31 c49 -17
117 -40 153 -51 75 -23 301 -74 306 -69 17 18 37 144 41 263 4 126 2 150 -21
240 -23 87 -96 265 -110 265 -2 0 -15 -24 -29 -52z"/>
<path d="M920 563 c-97 -60 -288 -151 -417 -198 -57 -20 -103 -39 -103 -41 0
-10 131 -99 185 -126 134 -68 261 -98 416 -98 171 0 322 40 464 123 66 38 137
96 130 107 -3 4 -17 11 -32 15 -94 22 -349 141 -479 221 -39 24 -75 44 -80 44
-5 0 -43 -21 -84 -47z"/>
</g>
</svg>
